<svg width="22" height="21" viewBox="0 0 22 21" fill="none" xmlns="http://www.w3.org/2000/svg">
<path opacity="0.4" d="M20.8421 17.5V18.6667C20.8421 19.95 19.8 21 18.5263 21H2.31579C1.03053 21 0 19.95 0 18.6667V2.33333C0 1.05 1.03053 0 2.31579 0H18.5263C19.8 0 20.8421 1.05 20.8421 2.33333V3.5H10.4211C9.13579 3.5 8.10526 4.55 8.10526 5.83333V15.1667C8.10526 16.45 9.13579 17.5 10.4211 17.5H20.8421ZM10.4211 15.1667H22V5.83333H10.4211V15.1667ZM15.0526 12.25C14.0916 12.25 13.3158 11.4683 13.3158 10.5C13.3158 9.53167 14.0916 8.75 15.0526 8.75C16.0137 8.75 16.7895 9.53167 16.7895 10.5C16.7895 11.4683 16.0137 12.25 15.0526 12.25Z" fill="black"/>
</svg>
